<svg version="1.1" xmlns="http://www.w3.org/2000/svg" xmlns:xlink="http://www.w3.org/1999/xlink" width="724" height="611"><defs></defs><g><g transform="translate(10,2) scale(1,1)"><rect fill="#C0C0C0" stroke="none" x="63" y="15" width="648" height="591" opacity="0.2"></rect></g><g transform="translate(10,2) scale(1,1)"><rect fill="#ffffff" stroke="none" x="56" y="8" width="648" height="591"></rect></g><g transform="translate(10,2) scale(1,1)"><path fill="none" stroke="#000000" d="M 56 8 L 704 8 L 704 599 L 56 599 L 56 8 Z Z" stroke-miterlimit="10"></path></g><g transform="translate(10,2) scale(1,1)"><g><path fill="none" stroke="none"></path><text fill="#000000" stroke="none" font-family="Arial" font-size="13px" font-style="normal" font-weight="bold" text-decoration="none" x="352.5" y="27.5">indieshop</text></g></g><g transform="translate(10,2) scale(1,1)"><path fill="#ffffff" stroke="none" d="M 15.820727272727272 105.68 C 15.820727272727272 100.886167936 19.706569597672726 97 24.5 97 C 29.293430402327274 97 33.17927272727273 100.886167936 33.17927272727273 105.68 C 33.17927272727273 110.473832064 29.293430402327274 114.36 24.5 114.36 C 19.706569597672726 114.36 15.820727272727272 110.473832064 15.820727272727272 105.68 Z"></path></g><g transform="translate(10,2) scale(1,1)"><path fill="none" stroke="#000000" d="M 15.820727272727272 105.68 C 15.820727272727272 100.886167936 19.706569597672726 97 24.5 97 C 29.293430402327274 97 33.17927272727273 100.886167936 33.17927272727273 105.68 C 33.17927272727273 110.473832064 29.293430402327274 114.36 24.5 114.36 C 19.706569597672726 114.36 15.820727272727272 110.473832064 15.820727272727272 105.68 Z" stroke-miterlimit="10"></path></g><g transform="translate(10,2) scale(1,1)"><path fill="none" stroke="#000000" d="M 24.5 114.36 L 24.5 131.64" stroke-miterlimit="10"></path></g><g transform="translate(10,2) scale(1,1)"><path fill="none" stroke="#000000" d="M 15.310181818181817 120.84 L 33.68981818181818 120.84" stroke-miterlimit="10"></path></g><g transform="translate(10,2) scale(1,1)"><path fill="none" stroke="#000000" d="M 24.5 131.64 L 11.736363636363635 149" stroke-miterlimit="10"></path></g><g transform="translate(10,2) scale(1,1)"><path fill="none" stroke="#000000" d="M 24.5 131.64 L 37.263636363636365 149" stroke-miterlimit="10"></path></g><g transform="translate(10,2) scale(1,1)"><g><path fill="none" stroke="none"></path><text fill="#000000" stroke="none" font-family="Arial" font-size="13px" font-style="normal" font-weight="bold" text-decoration="none" x="11" y="169.5">User</text></g></g><g transform="translate(10,2) scale(1,1)"><path fill="#ffffff" stroke="none" d="M 16.32072727272727 473.68 C 16.32072727272727 468.886167936 20.206569597672726 465 25 465 C 29.793430402327274 465 33.67927272727273 468.886167936 33.67927272727273 473.68 C 33.67927272727273 478.473832064 29.793430402327274 482.36 25 482.36 C 20.206569597672726 482.36 16.32072727272727 478.473832064 16.32072727272727 473.68 Z"></path></g><g transform="translate(10,2) scale(1,1)"><path fill="none" stroke="#000000" d="M 16.32072727272727 473.68 C 16.32072727272727 468.886167936 20.206569597672726 465 25 465 C 29.793430402327274 465 33.67927272727273 468.886167936 33.67927272727273 473.68 C 33.67927272727273 478.473832064 29.793430402327274 482.36 25 482.36 C 20.206569597672726 482.36 16.32072727272727 478.473832064 16.32072727272727 473.68 Z" stroke-miterlimit="10"></path></g><g transform="translate(10,2) scale(1,1)"><path fill="none" stroke="#000000" d="M 25 482.36 L 25 499.64" stroke-miterlimit="10"></path></g><g transform="translate(10,2) scale(1,1)"><path fill="none" stroke="#000000" d="M 15.810181818181817 488.84 L 34.18981818181818 488.84" stroke-miterlimit="10"></path></g><g transform="translate(10,2) scale(1,1)"><path fill="none" stroke="#000000" d="M 25 499.64 L 12.236363636363635 517" stroke-miterlimit="10"></path></g><g transform="translate(10,2) scale(1,1)"><path fill="none" stroke="#000000" d="M 25 499.64 L 37.763636363636365 517" stroke-miterlimit="10"></path></g><g transform="translate(10,2) scale(1,1)"><g><path fill="none" stroke="none"></path><text fill="#000000" stroke="none" font-family="Arial" font-size="13px" font-style="normal" font-weight="bold" text-decoration="none" x="6.5" y="537.5">Admin</text></g></g><g transform="translate(10,2) scale(1,1)"><path fill="#C0C0C0" stroke="none" d="M 207 112 C 207 102.6111584 249.3090864 95 301.5 95 C 353.6909136 95 396 102.6111584 396 112 C 396 121.3888416 353.6909136 129 301.5 129 C 249.3090864 129 207 121.3888416 207 112 Z" opacity="0.2"></path></g><g transform="translate(10,2) scale(1,1)"><path fill="#ffffff" stroke="none" d="M 200 105 C 200 95.6111584 242.3090864 88 294.5 88 C 346.6909136 88 389 95.6111584 389 105 C 389 114.3888416 346.6909136 122 294.5 122 C 242.3090864 122 200 114.3888416 200 105 Z"></path></g><g transform="translate(10,2) scale(1,1)"><path fill="none" stroke="#000000" d="M 200 105 C 200 95.6111584 242.3090864 88 294.5 88 C 346.6909136 88 389 95.6111584 389 105 C 389 114.3888416 346.6909136 122 294.5 122 C 242.3090864 122 200 114.3888416 200 105 Z" stroke-miterlimit="10"></path></g><g transform="translate(10,2) scale(1,1)"><g><path fill="none" stroke="none"></path><text fill="#000000" stroke="none" font-family="Arial" font-size="13px" font-style="normal" font-weight="bold" text-decoration="none" x="239.5" y="112">user profil manager</text></g></g><g transform="translate(10,2) scale(1,1)"><path fill="#C0C0C0" stroke="none" d="M 207 232 C 207 222.6111584 250.4283744 215 304 215 C 357.5716256 215 401 222.6111584 401 232 C 401 241.3888416 357.5716256 249 304 249 C 250.4283744 249 207 241.3888416 207 232 Z" opacity="0.2"></path></g><g transform="translate(10,2) scale(1,1)"><path fill="#ffffff" stroke="none" d="M 200 225 C 200 215.6111584 243.4283744 208 297 208 C 350.5716256 208 394 215.6111584 394 225 C 394 234.3888416 350.5716256 242 297 242 C 243.4283744 242 200 234.3888416 200 225 Z"></path></g><g transform="translate(10,2) scale(1,1)"><path fill="none" stroke="#000000" d="M 200 225 C 200 215.6111584 243.4283744 208 297 208 C 350.5716256 208 394 215.6111584 394 225 C 394 234.3888416 350.5716256 242 297 242 C 243.4283744 242 200 234.3888416 200 225 Z" stroke-miterlimit="10"></path></g><g transform="translate(10,2) scale(1,1)"><g><path fill="none" stroke="none"></path><text fill="#000000" stroke="none" font-family="Arial" font-size="13px" font-style="normal" font-weight="bold" text-decoration="none" x="239.5" y="232">user game manager</text></g></g><g transform="translate(10,2) scale(1,1)"><path fill="#C0C0C0" stroke="none" d="M 175 72 C 175 62.6111584 208.80249759999998 55 250.5 55 C 292.1975024 55 326 62.6111584 326 72 C 326 81.3888416 292.1975024 89 250.5 89 C 208.80249759999998 89 175 81.3888416 175 72 Z" opacity="0.2"></path></g><g transform="translate(10,2) scale(1,1)"><path fill="#ffffff" stroke="none" d="M 168 65 C 168 55.6111584 201.80249759999998 48 243.5 48 C 285.1975024 48 319 55.6111584 319 65 C 319 74.3888416 285.1975024 82 243.5 82 C 201.80249759999998 82 168 74.3888416 168 65 Z"></path></g><g transform="translate(10,2) scale(1,1)"><path fill="none" stroke="#000000" d="M 168 65 C 168 55.6111584 201.80249759999998 48 243.5 48 C 285.1975024 48 319 55.6111584 319 65 C 319 74.3888416 285.1975024 82 243.5 82 C 201.80249759999998 82 168 74.3888416 168 65 Z" stroke-miterlimit="10"></path></g><g transform="translate(10,2) scale(1,1)"><g><path fill="none" stroke="none"></path><text fill="#000000" stroke="none" font-family="Arial" font-size="13px" font-style="normal" font-weight="bold" text-decoration="none" x="197" y="72">C.R.U.D himself</text></g></g><g transform="translate(10,2) scale(1,1)"><path fill="#C0C0C0" stroke="none" d="M 327 72 C 327 62.6111584 350.7289056 55 380 55 C 409.2710944 55 433 62.6111584 433 72 C 433 81.3888416 409.2710944 89 380 89 C 350.7289056 89 327 81.3888416 327 72 Z" opacity="0.2"></path></g><g transform="translate(10,2) scale(1,1)"><path fill="#ffffff" stroke="none" d="M 320 65 C 320 55.6111584 343.7289056 48 373 48 C 402.2710944 48 426 55.6111584 426 65 C 426 74.3888416 402.2710944 82 373 82 C 343.7289056 82 320 74.3888416 320 65 Z"></path></g><g transform="translate(10,2) scale(1,1)"><path fill="none" stroke="#000000" d="M 320 65 C 320 55.6111584 343.7289056 48 373 48 C 402.2710944 48 426 55.6111584 426 65 C 426 74.3888416 402.2710944 82 373 82 C 343.7289056 82 320 74.3888416 320 65 Z" stroke-miterlimit="10"></path></g><g transform="translate(10,2) scale(1,1)"><g><path fill="none" stroke="none"></path><text fill="#000000" stroke="none" font-family="Arial" font-size="13px" font-style="normal" font-weight="bold" text-decoration="none" x="344" y="72">read other</text></g></g><g transform="translate(10,2) scale(1,1)"><path fill="#C0C0C0" stroke="none" d="M 239 192 C 239 182.6111584 268.3253456 175 304.5 175 C 340.6746544 175 370 182.6111584 370 192 C 370 201.3888416 340.6746544 209 304.5 209 C 268.3253456 209 239 201.3888416 239 192 Z" opacity="0.2"></path></g><g transform="translate(10,2) scale(1,1)"><path fill="#ffffff" stroke="none" d="M 232 185 C 232 175.6111584 261.3253456 168 297.5 168 C 333.6746544 168 363 175.6111584 363 185 C 363 194.3888416 333.6746544 202 297.5 202 C 261.3253456 202 232 194.3888416 232 185 Z"></path></g><g transform="translate(10,2) scale(1,1)"><path fill="none" stroke="#000000" d="M 232 185 C 232 175.6111584 261.3253456 168 297.5 168 C 333.6746544 168 363 175.6111584 363 185 C 363 194.3888416 333.6746544 202 297.5 202 C 261.3253456 202 232 194.3888416 232 185 Z" stroke-miterlimit="10"></path></g><g transform="translate(10,2) scale(1,1)"><g><path fill="none" stroke="none"></path><text fill="#000000" stroke="none" font-family="Arial" font-size="13px" font-style="normal" font-weight="bold" text-decoration="none" x="259" y="192">list all games</text></g></g><g transform="translate(10,2) scale(1,1)"><path fill="#C0C0C0" stroke="none" d="M 79 288 C 79 278.6111584 118.6227952 271 167.5 271 C 216.37720480000002 271 256 278.6111584 256 288 C 256 297.3888416 216.37720480000002 305 167.5 305 C 118.6227952 305 79 297.3888416 79 288 Z" opacity="0.2"></path></g><g transform="translate(10,2) scale(1,1)"><path fill="#ffffff" stroke="none" d="M 72 281 C 72 271.6111584 111.6227952 264 160.5 264 C 209.37720480000002 264 249 271.6111584 249 281 C 249 290.3888416 209.37720480000002 298 160.5 298 C 111.6227952 298 72 290.3888416 72 281 Z"></path></g><g transform="translate(10,2) scale(1,1)"><path fill="none" stroke="#000000" d="M 72 281 C 72 271.6111584 111.6227952 264 160.5 264 C 209.37720480000002 264 249 271.6111584 249 281 C 249 290.3888416 209.37720480000002 298 160.5 298 C 111.6227952 298 72 290.3888416 72 281 Z" stroke-miterlimit="10"></path></g><g transform="translate(10,2) scale(1,1)"><g><path fill="none" stroke="none"></path><text fill="#000000" stroke="none" font-family="Arial" font-size="13px" font-style="normal" font-weight="bold" text-decoration="none" x="104.5" y="288">C.R.U.D his games</text></g></g><g transform="translate(10,2) scale(1,1)"><path fill="#C0C0C0" stroke="none" d="M 263 288 C 263 278.6111584 301.27964959999997 271 348.5 271 C 395.72035040000003 271 434 278.6111584 434 288 C 434 297.3888416 395.72035040000003 305 348.5 305 C 301.27964959999997 305 263 297.3888416 263 288 Z" opacity="0.2"></path></g><g transform="translate(10,2) scale(1,1)"><path fill="#ffffff" stroke="none" d="M 256 281 C 256 271.6111584 294.27964959999997 264 341.5 264 C 388.72035040000003 264 427 271.6111584 427 281 C 427 290.3888416 388.72035040000003 298 341.5 298 C 294.27964959999997 298 256 290.3888416 256 281 Z"></path></g><g transform="translate(10,2) scale(1,1)"><path fill="none" stroke="#000000" d="M 256 281 C 256 271.6111584 294.27964959999997 264 341.5 264 C 388.72035040000003 264 427 271.6111584 427 281 C 427 290.3888416 388.72035040000003 298 341.5 298 C 294.27964959999997 298 256 290.3888416 256 281 Z" stroke-miterlimit="10"></path></g><g transform="translate(10,2) scale(1,1)"><g><path fill="none" stroke="none"></path><text fill="#000000" stroke="none" font-family="Arial" font-size="13px" font-style="normal" font-weight="bold" text-decoration="none" x="291" y="288">read other games</text></g></g><g transform="translate(10,2) scale(1,1)"><path fill="#C0C0C0" stroke="none" d="M 439 288 C 439 278.6111584 461.1619024 271 488.5 271 C 515.8380976 271 538 278.6111584 538 288 C 538 297.3888416 515.8380976 305 488.5 305 C 461.1619024 305 439 297.3888416 439 288 Z" opacity="0.2"></path></g><g transform="translate(10,2) scale(1,1)"><path fill="#ffffff" stroke="none" d="M 432 281 C 432 271.6111584 454.1619024 264 481.5 264 C 508.8380976 264 531 271.6111584 531 281 C 531 290.3888416 508.8380976 298 481.5 298 C 454.1619024 298 432 290.3888416 432 281 Z"></path></g><g transform="translate(10,2) scale(1,1)"><path fill="none" stroke="#000000" d="M 432 281 C 432 271.6111584 454.1619024 264 481.5 264 C 508.8380976 264 531 271.6111584 531 281 C 531 290.3888416 508.8380976 298 481.5 298 C 454.1619024 298 432 290.3888416 432 281 Z" stroke-miterlimit="10"></path></g><g transform="translate(10,2) scale(1,1)"><g><path fill="none" stroke="none"></path><text fill="#000000" stroke="none" font-family="Arial" font-size="13px" font-style="normal" font-weight="bold" text-decoration="none" x="470.5" y="288">cart</text></g></g><g transform="translate(10,2) scale(1,1)"><path fill="#C0C0C0" stroke="none" d="M 199 344 C 199 334.6111584 235.936504 327 281.5 327 C 327.063496 327 364 334.6111584 364 344 C 364 353.3888416 327.063496 361 281.5 361 C 235.936504 361 199 353.3888416 199 344 Z" opacity="0.2"></path></g><g transform="translate(10,2) scale(1,1)"><path fill="#ffffff" stroke="none" d="M 192 337 C 192 327.6111584 228.936504 320 274.5 320 C 320.063496 320 357 327.6111584 357 337 C 357 346.3888416 320.063496 354 274.5 354 C 228.936504 354 192 346.3888416 192 337 Z"></path></g><g transform="translate(10,2) scale(1,1)"><path fill="none" stroke="#000000" d="M 192 337 C 192 327.6111584 228.936504 320 274.5 320 C 320.063496 320 357 327.6111584 357 337 C 357 346.3888416 320.063496 354 274.5 354 C 228.936504 354 192 346.3888416 192 337 Z" stroke-miterlimit="10"></path></g><g transform="translate(10,2) scale(1,1)"><g><path fill="none" stroke="none"></path><text fill="#000000" stroke="none" font-family="Arial" font-size="13px" font-style="normal" font-weight="bold" text-decoration="none" x="225.5" y="344">add game to cart</text></g></g><g transform="translate(10,2) scale(1,1)"><path fill="#C0C0C0" stroke="none" d="M 567 344 C 567 334.6111584 589.1619024 327 616.5 327 C 643.8380976 327 666 334.6111584 666 344 C 666 353.3888416 643.8380976 361 616.5 361 C 589.1619024 361 567 353.3888416 567 344 Z" opacity="0.2"></path></g><g transform="translate(10,2) scale(1,1)"><path fill="#ffffff" stroke="none" d="M 560 337 C 560 327.6111584 582.1619024 320 609.5 320 C 636.8380976 320 659 327.6111584 659 337 C 659 346.3888416 636.8380976 354 609.5 354 C 582.1619024 354 560 346.3888416 560 337 Z"></path></g><g transform="translate(10,2) scale(1,1)"><path fill="none" stroke="#000000" d="M 560 337 C 560 327.6111584 582.1619024 320 609.5 320 C 636.8380976 320 659 327.6111584 659 337 C 659 346.3888416 636.8380976 354 609.5 354 C 582.1619024 354 560 346.3888416 560 337 Z" stroke-miterlimit="10"></path></g><g transform="translate(10,2) scale(1,1)"><g><path fill="none" stroke="none"></path><text fill="#000000" stroke="none" font-family="Arial" font-size="13px" font-style="normal" font-weight="bold" text-decoration="none" x="586" y="344">buy cart</text></g></g><g transform="translate(10,2) scale(1,1)"><path fill="#C0C0C0" stroke="none" d="M 367 344 C 367 334.6111584 411.5476624 327 466.5 327 C 521.4523376 327 566 334.6111584 566 344 C 566 353.3888416 521.4523376 361 466.5 361 C 411.5476624 361 367 353.3888416 367 344 Z" opacity="0.2"></path></g><g transform="translate(10,2) scale(1,1)"><path fill="#ffffff" stroke="none" d="M 360 337 C 360 327.6111584 404.5476624 320 459.5 320 C 514.4523376 320 559 327.6111584 559 337 C 559 346.3888416 514.4523376 354 459.5 354 C 404.5476624 354 360 346.3888416 360 337 Z"></path></g><g transform="translate(10,2) scale(1,1)"><path fill="none" stroke="#000000" d="M 360 337 C 360 327.6111584 404.5476624 320 459.5 320 C 514.4523376 320 559 327.6111584 559 337 C 559 346.3888416 514.4523376 354 459.5 354 C 404.5476624 354 360 346.3888416 360 337 Z" stroke-miterlimit="10"></path></g><g transform="translate(10,2) scale(1,1)"><g><path fill="none" stroke="none"></path><text fill="#000000" stroke="none" font-family="Arial" font-size="13px" font-style="normal" font-weight="bold" text-decoration="none" x="400.5" y="344">remove game to cart</text></g></g><g transform="translate(10,2) scale(1,1)"><path fill="#C0C0C0" stroke="none" d="M 231 152 C 231 142.6111584 259.8776304 135 295.5 135 C 331.1223696 135 360 142.6111584 360 152 C 360 161.3888416 331.1223696 169 295.5 169 C 259.8776304 169 231 161.3888416 231 152 Z" opacity="0.2"></path></g><g transform="translate(10,2) scale(1,1)"><path fill="#ffffff" stroke="none" d="M 224 145 C 224 135.6111584 252.8776304 128 288.5 128 C 324.1223696 128 353 135.6111584 353 145 C 353 154.3888416 324.1223696 162 288.5 162 C 252.8776304 162 224 154.3888416 224 145 Z"></path></g><g transform="translate(10,2) scale(1,1)"><path fill="none" stroke="#000000" d="M 224 145 C 224 135.6111584 252.8776304 128 288.5 128 C 324.1223696 128 353 135.6111584 353 145 C 353 154.3888416 324.1223696 162 288.5 162 C 252.8776304 162 224 154.3888416 224 145 Z" stroke-miterlimit="10"></path></g><g transform="translate(10,2) scale(1,1)"><g><path fill="none" stroke="none"></path><text fill="#000000" stroke="none" font-family="Arial" font-size="13px" font-style="normal" font-weight="bold" text-decoration="none" x="251" y="152">search game</text></g></g><g transform="translate(10,2) scale(1,1)"><path fill="none" stroke="#000000" d="M 50 132 L 199 116" stroke-miterlimit="10"></path></g><g transform="translate(10,2) scale(1,1)"><path fill="none" stroke="#000000" d="M 189.34486110158244 121.27051163097705 L 199 116 L 188.4459712970445 112.89960032621738" stroke-miterlimit="10"></path></g><g transform="translate(10,2) scale(1,1)"><path fill="none" stroke="#000000" d="M 50 136 L 223 143" stroke-miterlimit="10"></path></g><g transform="translate(10,2) scale(1,1)"><path fill="none" stroke="#000000" d="M 212.67544609927756 146.79520575872732 L 223 143 L 213.01582219607883 138.38305365206745" stroke-miterlimit="10"></path></g><g transform="translate(10,2) scale(1,1)"><path fill="none" stroke="#000000" d="M 50 140 L 231 173" stroke-miterlimit="10"></path></g><g transform="translate(10,2) scale(1,1)"><path fill="none" stroke="#000000" d="M 220.2471002067113 175.31843611848424 L 231 173 L 221.7571697376181 167.03593353987418" stroke-miterlimit="10"></path></g><g transform="translate(10,2) scale(1,1)"><path fill="none" stroke="#000000" d="M 50 144 L 242 207" stroke-miterlimit="10"></path></g><g transform="translate(10,2) scale(1,1)"><path fill="none" stroke="#000000" d="M 231.03145551919295 207.83128332868938 L 242 207 L 233.65626173907145 199.83187389667864" stroke-miterlimit="10"></path></g><g transform="translate(10,2) scale(1,1)"><path fill="none" stroke="#000000" d="M 266 83 L 271 87" stroke-miterlimit="10" stroke-dasharray="3"></path></g><g transform="translate(10,2) scale(1,1)"><path fill="none" stroke="#000000" d="M 260.4346192883948 83.93850846500582 L 271 87 L 265.693949077946 77.36434622806682" stroke-miterlimit="10"></path></g><g transform="translate(10,2) scale(1,1)"><path fill="none" stroke="#000000" d="M 337 83 L 330 87" stroke-miterlimit="10" stroke-dasharray="3"></path></g><g transform="translate(10,2) scale(1,1)"><path fill="none" stroke="#000000" d="M 336.7351670803088 78.30301636196064 L 330 87 L 340.91217842123683 85.6127862085847" stroke-miterlimit="10"></path></g><g transform="translate(10,2) scale(1,1)"><path fill="none" stroke="#000000" d="M 204 263 L 253 243" stroke-miterlimit="10" stroke-dasharray="3"></path></g><g transform="translate(10,2) scale(1,1)"><path fill="none" stroke="#000000" d="M 245.1816755500407 250.73781641001958 L 253 243 L 242.0001473088158 242.94307221901857" stroke-miterlimit="10"></path></g><g transform="translate(10,2) scale(1,1)"><path fill="none" stroke="#000000" d="M 327 263 L 311 243" stroke-miterlimit="10" stroke-dasharray="3"></path></g><g transform="translate(10,2) scale(1,1)"><path fill="none" stroke="#000000" d="M 320.63565377193316 248.306050922054 L 311 243 L 314.06149153499416 253.5653807116052" stroke-miterlimit="10"></path></g><g transform="translate(10,2) scale(1,1)"><path fill="none" stroke="#000000" d="M 431 266 L 356 243" stroke-miterlimit="10" stroke-dasharray="3"></path></g><g transform="translate(10,2) scale(1,1)"><path fill="none" stroke="#000000" d="M 366.95025639479144 241.9550670412276 L 356 243 L 364.4818797335217 250.0041213714551" stroke-miterlimit="10"></path></g><g transform="translate(10,2) scale(1,1)"><path fill="none" stroke="#000000" d="M 568 319 L 522 299" stroke-miterlimit="10" stroke-dasharray="3"></path></g><g transform="translate(10,2) scale(1,1)"><path fill="none" stroke="#000000" d="M 532.998329449151 299.1917011422413 L 522 299 L 529.6414401575784 306.91254651285846" stroke-miterlimit="10"></path></g><g transform="translate(10,2) scale(1,1)"><path fill="none" stroke="#000000" d="M 466 319 L 474 299" stroke-miterlimit="10" stroke-dasharray="3"></path></g><g transform="translate(10,2) scale(1,1)"><path fill="none" stroke="#000000" d="M 474.13411642738856 309.99918236888107 L 474 299 L 466.31723819473166 306.8724310758183" stroke-miterlimit="10"></path></g><g transform="translate(10,2) scale(1,1)"><path fill="none" stroke="#000000" d="M 341 319 L 431 295" stroke-miterlimit="10" stroke-dasharray="3"></path></g><g transform="translate(10,2) scale(1,1)"><path fill="none" stroke="#000000" d="M 422.2651039753523 301.6859248753328 L 431 295 L 420.0958329701606 293.5511586058638" stroke-miterlimit="10"></path></g><g transform="translate(10,2) scale(1,1)"><path fill="#C0C0C0" stroke="none" d="M 431 232 C 431 222.6111584 458.5344848 215 492.5 215 C 526.4655152 215 554 222.6111584 554 232 C 554 241.3888416 526.4655152 249 492.5 249 C 458.5344848 249 431 241.3888416 431 232 Z" opacity="0.2"></path></g><g transform="translate(10,2) scale(1,1)"><path fill="#ffffff" stroke="none" d="M 424 225 C 424 215.6111584 451.5344848 208 485.5 208 C 519.4655152 208 547 215.6111584 547 225 C 547 234.3888416 519.4655152 242 485.5 242 C 451.5344848 242 424 234.3888416 424 225 Z"></path></g><g transform="translate(10,2) scale(1,1)"><path fill="none" stroke="#000000" d="M 424 225 C 424 215.6111584 451.5344848 208 485.5 208 C 519.4655152 208 547 215.6111584 547 225 C 547 234.3888416 519.4655152 242 485.5 242 C 451.5344848 242 424 234.3888416 424 225 Z" stroke-miterlimit="10"></path></g><g transform="translate(10,2) scale(1,1)"><g><path fill="none" stroke="none"></path><text fill="#000000" stroke="none" font-family="Arial" font-size="13px" font-style="normal" font-weight="bold" text-decoration="none" x="451" y="232">report game</text></g></g><g transform="translate(10,2) scale(1,1)"><path fill="none" stroke="#000000" d="M 423 225 L 395 225" stroke-miterlimit="10" stroke-dasharray="3"></path></g><g transform="translate(10,2) scale(1,1)"><path fill="none" stroke="#000000" d="M 405.16267485762415 220.790482243984 L 395 225 L 405.16267485762415 229.209517756016" stroke-miterlimit="10"></path></g><g transform="translate(10,2) scale(1,1)"><path fill="#C0C0C0" stroke="none" d="M 127 464 C 127 454.6111584 155.2060576 447 190 447 C 224.7939424 447 253 454.6111584 253 464 C 253 473.3888416 224.7939424 481 190 481 C 155.2060576 481 127 473.3888416 127 464 Z" opacity="0.2"></path></g><g transform="translate(10,2) scale(1,1)"><path fill="#ffffff" stroke="none" d="M 120 457 C 120 447.6111584 148.2060576 440 183 440 C 217.7939424 440 246 447.6111584 246 457 C 246 466.3888416 217.7939424 474 183 474 C 148.2060576 474 120 466.3888416 120 457 Z"></path></g><g transform="translate(10,2) scale(1,1)"><path fill="none" stroke="#000000" d="M 120 457 C 120 447.6111584 148.2060576 440 183 440 C 217.7939424 440 246 447.6111584 246 457 C 246 466.3888416 217.7939424 474 183 474 C 148.2060576 474 120 466.3888416 120 457 Z" stroke-miterlimit="10"></path></g><g transform="translate(10,2) scale(1,1)"><g><path fill="none" stroke="none"></path><text fill="#000000" stroke="none" font-family="Arial" font-size="13px" font-style="normal" font-weight="bold" text-decoration="none" x="147.5" y="464">list all report</text></g></g><g transform="translate(10,2) scale(1,1)"><path fill="#C0C0C0" stroke="none" d="M 127 512 C 127 502.6111584 166.62279519999998 495 215.5 495 C 264.3772048 495 304 502.6111584 304 512 C 304 521.3888416 264.3772048 529 215.5 529 C 166.62279519999998 529 127 521.3888416 127 512 Z" opacity="0.2"></path></g><g transform="translate(10,2) scale(1,1)"><path fill="#ffffff" stroke="none" d="M 120 505 C 120 495.6111584 159.62279519999998 488 208.5 488 C 257.3772048 488 297 495.6111584 297 505 C 297 514.3888416 257.3772048 522 208.5 522 C 159.62279519999998 522 120 514.3888416 120 505 Z"></path></g><g transform="translate(10,2) scale(1,1)"><path fill="none" stroke="#000000" d="M 120 505 C 120 495.6111584 159.62279519999998 488 208.5 488 C 257.3772048 488 297 495.6111584 297 505 C 297 514.3888416 257.3772048 522 208.5 522 C 159.62279519999998 522 120 514.3888416 120 505 Z" stroke-miterlimit="10"></path></g><g transform="translate(10,2) scale(1,1)"><g><path fill="none" stroke="none"></path><text fill="#000000" stroke="none" font-family="Arial" font-size="13px" font-style="normal" font-weight="bold" text-decoration="none" x="153" y="512">C.R.U.D all Games</text></g></g><g transform="translate(10,2) scale(1,1)"><path fill="#C0C0C0" stroke="none" d="M 135 560 C 135 550.6111584 164.9969184 543 202 543 C 239.0030816 543 269 550.6111584 269 560 C 269 569.3888416 239.0030816 577 202 577 C 164.9969184 577 135 569.3888416 135 560 Z" opacity="0.2"></path></g><g transform="translate(10,2) scale(1,1)"><path fill="#ffffff" stroke="none" d="M 128 553 C 128 543.6111584 157.9969184 536 195 536 C 232.0030816 536 262 543.6111584 262 553 C 262 562.3888416 232.0030816 570 195 570 C 157.9969184 570 128 562.3888416 128 553 Z"></path></g><g transform="translate(10,2) scale(1,1)"><path fill="none" stroke="#000000" d="M 128 553 C 128 543.6111584 157.9969184 536 195 536 C 232.0030816 536 262 543.6111584 262 553 C 262 562.3888416 232.0030816 570 195 570 C 157.9969184 570 128 562.3888416 128 553 Z" stroke-miterlimit="10"></path></g><g transform="translate(10,2) scale(1,1)"><g><path fill="none" stroke="none"></path><text fill="#000000" stroke="none" font-family="Arial" font-size="13px" font-style="normal" font-weight="bold" text-decoration="none" x="155" y="560">crud all Users</text></g></g><g transform="translate(10,2) scale(1,1)"><path fill="none" stroke="#000000" d="M 25 463 L 24 176" stroke-miterlimit="10"></path></g><g transform="translate(10,2) scale(1,1)"><path fill="#FFFFFF" stroke="none" d="M 32.48980401085015 196.29589189607967 L 24 176 L 15.65183519706986 196.35456077696392"></path></g><g transform="translate(10,2) scale(1,1)"><path fill="none" stroke="#000000" d="M 32.48980401085015 196.29589189607967 L 24 176 L 15.65183519706986 196.35456077696392 L 32.48980401085015 196.29589189607967" stroke-miterlimit="10"></path></g><g transform="translate(10,2) scale(1,1)"><path fill="none" stroke="#000000" d="M 51 495 L 121 475" stroke-miterlimit="10"></path></g><g transform="translate(10,2) scale(1,1)"><path fill="none" stroke="#000000" d="M 112.38478821814384 481.8394536297695 L 121 475 L 110.07190128647034 473.7443493689122" stroke-miterlimit="10"></path></g><g transform="translate(10,2) scale(1,1)"><path fill="none" stroke="#000000" d="M 51 503 L 119 504" stroke-miterlimit="10"></path></g><g transform="translate(10,2) scale(1,1)"><path fill="none" stroke="#000000" d="M 108.77652588919815 508.0596277053154 L 119 504 L 108.9003218494456 499.6415024084882" stroke-miterlimit="10"></path></g><g transform="translate(10,2) scale(1,1)"><path fill="none" stroke="#000000" d="M 51 511 L 134 535" stroke-miterlimit="10"></path></g><g transform="translate(10,2) scale(1,1)"><path fill="none" stroke="#000000" d="M 123.06796401890401 536.2208969276817 L 134 535 L 125.40657872889815 528.1331877222852" stroke-miterlimit="10"></path></g></g></svg>