<svg version="1.1" xmlns="http://www.w3.org/2000/svg" xmlns:xlink="http://www.w3.org/1999/xlink" width="705" height="556"><defs></defs><g><g transform="translate(-22,2) scale(1,1)"><rect fill="#C0C0C0" stroke="none" x="39" y="15" width="207" height="264" opacity="0.2"></rect></g><g transform="translate(-22,2) scale(1,1)"><rect fill="#ffffff" stroke="none" x="32" y="8" width="207" height="264"></rect></g><g transform="translate(-22,2) scale(1,1)"><path fill="none" stroke="#000000" d="M 32 8 L 239 8 L 239 272 L 32 272 L 32 8 Z Z" stroke-miterlimit="10"></path></g><g transform="translate(-22,2) scale(1,1)"><path fill="none" stroke="#000000" d="M 32 33 L 239 33" stroke-miterlimit="10"></path></g><g transform="translate(-22,2) scale(1,1)"><path fill="none" stroke="#000000" d="M 32 146 L 239 146" stroke-miterlimit="10"></path></g><g transform="translate(-22,2) scale(1,1)"><g><path fill="none" stroke="none"></path><text fill="#000000" stroke="none" font-family="Arial" font-size="13px" font-style="normal" font-weight="bold" text-decoration="none" x="122" y="27.5">User</text></g></g><g transform="translate(-22,2) scale(1,1)"><g><path fill="none" stroke="none"></path><text fill="#000000" stroke="none" font-family="Arial" font-size="13px" font-style="normal" font-weight="normal" text-decoration="none" x="37" y="50.5">+username: string</text></g></g><g transform="translate(-22,2) scale(1,1)"><g><path fill="none" stroke="none"></path><text fill="#000000" stroke="none" font-family="Arial" font-size="13px" font-style="normal" font-weight="normal" text-decoration="none" x="37" y="65.5">+password: string</text></g></g><g transform="translate(-22,2) scale(1,1)"><g><path fill="none" stroke="none"></path><text fill="#000000" stroke="none" font-family="Arial" font-size="13px" font-style="normal" font-weight="normal" text-decoration="none" x="37" y="80.5">+salt: string</text></g></g><g transform="translate(-22,2) scale(1,1)"><g><path fill="none" stroke="none"></path><text fill="#000000" stroke="none" font-family="Arial" font-size="13px" font-style="normal" font-weight="normal" text-decoration="none" x="37" y="95.5">+mail: string</text></g></g><g transform="translate(-22,2) scale(1,1)"><g><path fill="none" stroke="none"></path><text fill="#000000" stroke="none" font-family="Arial" font-size="13px" font-style="normal" font-weight="normal" text-decoration="none" x="37" y="110.5">+creations: Games_id</text></g></g><g transform="translate(-22,2) scale(1,1)"><g><path fill="none" stroke="none"></path><text fill="#000000" stroke="none" font-family="Arial" font-size="13px" font-style="normal" font-weight="normal" text-decoration="none" x="37" y="125.5">+games: Games_id</text></g></g><g transform="translate(-22,2) scale(1,1)"><g><path fill="none" stroke="none"></path><text fill="#000000" stroke="none" font-family="Arial" font-size="13px" font-style="normal" font-weight="normal" text-decoration="none" x="37" y="140.5">+cart: Cart_id</text></g></g><g transform="translate(-22,2) scale(1,1)"><g><path fill="none" stroke="none"></path><text fill="#000000" stroke="none" font-family="Arial" font-size="13px" font-style="normal" font-weight="normal" text-decoration="none" x="37" y="163.5">+login()</text></g></g><g transform="translate(-22,2) scale(1,1)"><g><path fill="none" stroke="none"></path><text fill="#000000" stroke="none" font-family="Arial" font-size="13px" font-style="normal" font-weight="normal" text-decoration="none" x="37" y="178.5">+save()</text></g></g><g transform="translate(-22,2) scale(1,1)"><g><path fill="none" stroke="none"></path><text fill="#000000" stroke="none" font-family="Arial" font-size="13px" font-style="normal" font-weight="normal" text-decoration="none" x="37" y="193.5">+delete()</text></g></g><g transform="translate(-22,2) scale(1,1)"><g><path fill="none" stroke="none"></path><text fill="#000000" stroke="none" font-family="Arial" font-size="13px" font-style="normal" font-weight="normal" text-decoration="none" x="37" y="208.5">+modify()</text></g></g><g transform="translate(-22,2) scale(1,1)"><rect fill="#C0C0C0" stroke="none" x="519" y="15" width="176" height="265" opacity="0.2"></rect></g><g transform="translate(-22,2) scale(1,1)"><rect fill="#ffffff" stroke="none" x="512" y="8" width="176" height="265"></rect></g><g transform="translate(-22,2) scale(1,1)"><path fill="none" stroke="#000000" d="M 512 8 L 688 8 L 688 273 L 512 273 L 512 8 Z Z" stroke-miterlimit="10"></path></g><g transform="translate(-22,2) scale(1,1)"><path fill="none" stroke="#000000" d="M 512 33 L 688 33" stroke-miterlimit="10"></path></g><g transform="translate(-22,2) scale(1,1)"><path fill="none" stroke="#000000" d="M 512 176 L 688 176" stroke-miterlimit="10"></path></g><g transform="translate(-22,2) scale(1,1)"><g><path fill="none" stroke="none"></path><text fill="#000000" stroke="none" font-family="Arial" font-size="13px" font-style="normal" font-weight="bold" text-decoration="none" x="582.5" y="27.5">Game</text></g></g><g transform="translate(-22,2) scale(1,1)"><g><path fill="none" stroke="none"></path><text fill="#000000" stroke="none" font-family="Arial" font-size="13px" font-style="normal" font-weight="normal" text-decoration="none" x="517" y="50.5">+name: string</text></g></g><g transform="translate(-22,2) scale(1,1)"><g><path fill="none" stroke="none"></path><text fill="#000000" stroke="none" font-family="Arial" font-size="13px" font-style="normal" font-weight="normal" text-decoration="none" x="517" y="65.5">+desc: string</text></g></g><g transform="translate(-22,2) scale(1,1)"><g><path fill="none" stroke="none"></path><text fill="#000000" stroke="none" font-family="Arial" font-size="13px" font-style="normal" font-weight="normal" text-decoration="none" x="517" y="80.5">+imgs: strings</text></g></g><g transform="translate(-22,2) scale(1,1)"><g><path fill="none" stroke="none"></path><text fill="#000000" stroke="none" font-family="Arial" font-size="13px" font-style="normal" font-weight="normal" text-decoration="none" x="517" y="95.5">+file: strings</text></g></g><g transform="translate(-22,2) scale(1,1)"><g><path fill="none" stroke="none"></path><text fill="#000000" stroke="none" font-family="Arial" font-size="13px" font-style="normal" font-weight="normal" text-decoration="none" x="517" y="110.5">+price: float</text></g></g><g transform="translate(-22,2) scale(1,1)"><g><path fill="none" stroke="none"></path><text fill="#000000" stroke="none" font-family="Arial" font-size="13px" font-style="normal" font-weight="normal" text-decoration="none" x="517" y="125.5">+creators: Users_id</text></g></g><g transform="translate(-22,2) scale(1,1)"><g><path fill="none" stroke="none"></path><text fill="#000000" stroke="none" font-family="Arial" font-size="13px" font-style="normal" font-weight="normal" text-decoration="none" x="517" y="140.5">+buyer: Users_id</text></g></g><g transform="translate(-22,2) scale(1,1)"><g><path fill="none" stroke="none"></path><text fill="#000000" stroke="none" font-family="Arial" font-size="13px" font-style="normal" font-weight="normal" text-decoration="none" x="517" y="155.5">+reports: Reports_id</text></g></g><g transform="translate(-22,2) scale(1,1)"><g><path fill="none" stroke="none"></path><text fill="#000000" stroke="none" font-family="Arial" font-size="13px" font-style="normal" font-weight="normal" text-decoration="none" x="517" y="170.5">+cats: Carts_id</text></g></g><g transform="translate(-22,2) scale(1,1)"><g><path fill="none" stroke="none"></path><text fill="#000000" stroke="none" font-family="Arial" font-size="13px" font-style="normal" font-weight="normal" text-decoration="none" x="517" y="193.5">+save()</text></g></g><g transform="translate(-22,2) scale(1,1)"><g><path fill="none" stroke="none"></path><text fill="#000000" stroke="none" font-family="Arial" font-size="13px" font-style="normal" font-weight="normal" text-decoration="none" x="517" y="208.5">+modify()</text></g></g><g transform="translate(-22,2) scale(1,1)"><g><path fill="none" stroke="none"></path><text fill="#000000" stroke="none" font-family="Arial" font-size="13px" font-style="normal" font-weight="normal" text-decoration="none" x="517" y="223.5">+delete()</text></g></g><g transform="translate(-22,2) scale(1,1)"><g><path fill="none" stroke="none"></path><text fill="#000000" stroke="none" font-family="Arial" font-size="13px" font-style="normal" font-weight="normal" text-decoration="none" x="517" y="238.5">+report()</text></g></g><g transform="translate(-22,2) scale(1,1)"><g><path fill="none" stroke="none"></path><text fill="#000000" stroke="none" font-family="Arial" font-size="13px" font-style="normal" font-weight="normal" text-decoration="none" x="517" y="253.5">+buy()</text></g></g><g transform="translate(-22,2) scale(1,1)"><g><path fill="none" stroke="none"></path><text fill="#000000" stroke="none" font-family="Arial" font-size="13px" font-style="normal" font-weight="normal" text-decoration="none" x="517" y="268.5">+addCreator()</text></g></g><g transform="translate(-22,2) scale(1,1)"><rect fill="#C0C0C0" stroke="none" x="47" y="351" width="208" height="200" opacity="0.2"></rect></g><g transform="translate(-22,2) scale(1,1)"><rect fill="#ffffff" stroke="none" x="40" y="344" width="208" height="200"></rect></g><g transform="translate(-22,2) scale(1,1)"><path fill="none" stroke="#000000" d="M 40 344 L 248 344 L 248 544 L 40 544 L 40 344 Z Z" stroke-miterlimit="10"></path></g><g transform="translate(-22,2) scale(1,1)"><path fill="none" stroke="#000000" d="M 40 369 L 248 369" stroke-miterlimit="10"></path></g><g transform="translate(-22,2) scale(1,1)"><path fill="none" stroke="#000000" d="M 40 392 L 248 392" stroke-miterlimit="10"></path></g><g transform="translate(-22,2) scale(1,1)"><g><path fill="none" stroke="none"></path><text fill="#000000" stroke="none" font-family="Arial" font-size="13px" font-style="normal" font-weight="bold" text-decoration="none" x="125.5" y="363.5">Admin</text></g></g><g transform="translate(-22,2) scale(1,1)"><g><path fill="none" stroke="none"></path><text fill="#000000" stroke="none" font-family="Arial" font-size="13px" font-style="normal" font-weight="normal" text-decoration="none" x="45" y="386.5">+is_admin: bool</text></g></g><g transform="translate(-22,2) scale(1,1)"><rect fill="#C0C0C0" stroke="none" x="527" y="351" width="176" height="200" opacity="0.2"></rect></g><g transform="translate(-22,2) scale(1,1)"><rect fill="#ffffff" stroke="none" x="520" y="344" width="176" height="200"></rect></g><g transform="translate(-22,2) scale(1,1)"><path fill="none" stroke="#000000" d="M 520 344 L 696 344 L 696 544 L 520 544 L 520 344 Z Z" stroke-miterlimit="10"></path></g><g transform="translate(-22,2) scale(1,1)"><path fill="none" stroke="#000000" d="M 520 369 L 696 369" stroke-miterlimit="10"></path></g><g transform="translate(-22,2) scale(1,1)"><path fill="none" stroke="#000000" d="M 520 422 L 696 422" stroke-miterlimit="10"></path></g><g transform="translate(-22,2) scale(1,1)"><g><path fill="none" stroke="none"></path><text fill="#000000" stroke="none" font-family="Arial" font-size="13px" font-style="normal" font-weight="bold" text-decoration="none" x="589" y="363.5">Report</text></g></g><g transform="translate(-22,2) scale(1,1)"><g><path fill="none" stroke="none"></path><text fill="#000000" stroke="none" font-family="Arial" font-size="13px" font-style="normal" font-weight="normal" text-decoration="none" x="525" y="386.5">+title: string</text></g></g><g transform="translate(-22,2) scale(1,1)"><g><path fill="none" stroke="none"></path><text fill="#000000" stroke="none" font-family="Arial" font-size="13px" font-style="normal" font-weight="normal" text-decoration="none" x="525" y="401.5">+description: string</text></g></g><g transform="translate(-22,2) scale(1,1)"><g><path fill="none" stroke="none"></path><text fill="#000000" stroke="none" font-family="Arial" font-size="13px" font-style="normal" font-weight="normal" text-decoration="none" x="525" y="416.5">+game: Game_id</text></g></g><g transform="translate(-22,2) scale(1,1)"><path fill="none" stroke="#000000" d="M 141 343 L 139 273" stroke-miterlimit="10"></path></g><g transform="translate(-22,2) scale(1,1)"><path fill="#FFFFFF" stroke="none" d="M 147.9960886657418 293.0766129792381 L 139 273 L 131.16488611882437 293.5575044805786"></path></g><g transform="translate(-22,2) scale(1,1)"><path fill="none" stroke="#000000" d="M 147.9960886657418 293.0766129792381 L 139 273 L 131.16488611882437 293.5575044805786 L 147.9960886657418 293.0766129792381" stroke-miterlimit="10"></path></g><g transform="translate(-22,2) scale(1,1)"><path fill="none" stroke="#000000" d="M 240 127 L 366 112 L 511 129" stroke-miterlimit="10"></path></g><g transform="translate(-22,2) scale(1,1)"><g><path fill="none" stroke="none"></path><text fill="#000000" stroke="none" font-family="Arial" font-size="13px" font-style="normal" font-weight="normal" text-decoration="none" x="292.5" y="103.5">+Ncreations to Ncreators</text></g></g><g transform="translate(-22,2) scale(1,1)"><path fill="none" stroke="#000000" d="M 605 343 L 604 274" stroke-miterlimit="10"></path></g><g transform="translate(-22,2) scale(1,1)"><g><path fill="none" stroke="none"></path><text fill="#000000" stroke="none" font-family="Arial" font-size="13px" font-style="normal" font-weight="normal" text-decoration="none" x="602.5" y="312.5">+Nreports to 1game</text></g></g><g transform="translate(-22,2) scale(1,1)"><path fill="none" stroke="#000000" d="M 240 160 L 368 184 L 511 157" stroke-miterlimit="10"></path></g><g transform="translate(-22,2) scale(1,1)"><g><path fill="none" stroke="none"></path><text fill="#000000" stroke="none" font-family="Arial" font-size="13px" font-style="normal" font-weight="normal" text-decoration="none" x="304.5" y="163.5">+Ngames to Nbuyer</text></g></g><g transform="translate(-22,2) scale(1,1)"><rect fill="#C0C0C0" stroke="none" x="303" y="351" width="175" height="199" opacity="0.2"></rect></g><g transform="translate(-22,2) scale(1,1)"><rect fill="#ffffff" stroke="none" x="296" y="344" width="175" height="199"></rect></g><g transform="translate(-22,2) scale(1,1)"><path fill="none" stroke="#000000" d="M 296 344 L 471 344 L 471 543 L 296 543 L 296 344 Z Z" stroke-miterlimit="10"></path></g><g transform="translate(-22,2) scale(1,1)"><path fill="none" stroke="#000000" d="M 296 369 L 471 369" stroke-miterlimit="10"></path></g><g transform="translate(-22,2) scale(1,1)"><path fill="none" stroke="#000000" d="M 296 407 L 471 407" stroke-miterlimit="10"></path></g><g transform="translate(-22,2) scale(1,1)"><g><path fill="none" stroke="none"></path><text fill="#000000" stroke="none" font-family="Arial" font-size="13px" font-style="normal" font-weight="bold" text-decoration="none" x="371.5" y="363.5">Cart</text></g></g><g transform="translate(-22,2) scale(1,1)"><g><path fill="none" stroke="none"></path><text fill="#000000" stroke="none" font-family="Arial" font-size="13px" font-style="normal" font-weight="normal" text-decoration="none" x="301" y="386.5">+user: User_id</text></g></g><g transform="translate(-22,2) scale(1,1)"><g><path fill="none" stroke="none"></path><text fill="#000000" stroke="none" font-family="Arial" font-size="13px" font-style="normal" font-weight="normal" text-decoration="none" x="301" y="401.5">+games: Games_id</text></g></g><g transform="translate(-22,2) scale(1,1)"><g><path fill="none" stroke="none"></path><text fill="#000000" stroke="none" font-family="Arial" font-size="13px" font-style="normal" font-weight="normal" text-decoration="none" x="301" y="424.5">+getTotal()</text></g></g><g transform="translate(-22,2) scale(1,1)"><path fill="none" stroke="#000000" d="M 240 268 L 301 343" stroke-miterlimit="10"></path></g><g transform="translate(-22,2) scale(1,1)"><g><path fill="none" stroke="none"></path><text fill="#000000" stroke="none" font-family="Arial" font-size="13px" font-style="normal" font-weight="normal" text-decoration="none" x="251.5" y="292.5">+1cart to 1user</text></g></g><g transform="translate(-22,2) scale(1,1)"><path fill="none" stroke="#000000" d="M 455 343 L 511 264" stroke-miterlimit="10"></path></g><g transform="translate(-22,2) scale(1,1)"><g><path fill="none" stroke="none"></path><text fill="#000000" stroke="none" font-family="Arial" font-size="13px" font-style="normal" font-weight="normal" text-decoration="none" x="370.5" y="308.5">+Ngames to Ncarts</text></g></g></g></svg>